<?xml version="1.0" encoding="utf-8"?>
<!-- Uploaded to: SVG Repo, www.svgrepo.com, Generator: SVG Repo Mixer Tools -->
<svg width="800px" height="800px" viewBox="0 0 1024 1024" class="icon"  version="1.1" xmlns="http://www.w3.org/2000/svg"><path d="M853.333333 874.666667H170.666667c-46.933333 0-85.333333-38.4-85.333334-85.333334V234.666667c0-46.933333 38.4-85.333333 85.333334-85.333334h682.666666c46.933333 0 85.333333 38.4 85.333334 85.333334v554.666666c0 46.933333-38.4 85.333333-85.333334 85.333334z" fill="#80DEEA" /><path d="M768 362.666667h-106.666667l-42.666666-42.666667 42.666666-42.666667h106.666667l42.666667 42.666667zM768 746.666667h-106.666667l-42.666666-42.666667 42.666666-42.666667h106.666667l42.666667 42.666667zM789.333333 640V384l42.666667-42.666667 42.666667 42.666667v256l-42.666667 42.666667zM554.666667 640V384l42.666666-42.666667 42.666667 42.666667v256l-42.666667 42.666667zM362.666667 362.666667h-106.666667l-42.666667-42.666667 42.666667-42.666667h106.666667l42.666666 42.666667zM362.666667 746.666667h-106.666667l-42.666667-42.666667 42.666667-42.666667h106.666667l42.666666 42.666667zM384 640V384l42.666667-42.666667 42.666666 42.666667v256l-42.666666 42.666667zM149.333333 640V384l42.666667-42.666667 42.666667 42.666667v256l-42.666667 42.666667z" fill="#2962FF" /></svg>